<svg width="155" height="54" viewBox="0 0 155 54" fill="none" xmlns="http://www.w3.org/2000/svg">
<path fill-rule="evenodd" clip-rule="evenodd" d="M143.398 17.804C144.881 17.0348 150 14.0163 150 9C150 5.13401 146.866 2 143 2C139.134 2 136 5.13401 136 9C136 14.0163 141.119 17.0348 142.602 17.804C142.855 17.9351 143.145 17.9351 143.398 17.804ZM143 12C144.657 12 146 10.6569 146 9C146 7.34315 144.657 6 143 6C141.343 6 140 7.34315 140 9C140 10.6569 141.343 12 143 12Z" fill="white" fill-opacity="0.25"/>
<path d="M143.398 17.804L143.674 18.3366L143.674 18.3366L143.398 17.804ZM142.602 17.804L142.878 17.2714L142.878 17.2713L142.602 17.804ZM149.4 9C149.4 11.2907 148.233 13.1563 146.829 14.5722C145.426 15.9876 143.836 16.9007 143.122 17.2714L143.674 18.3366C144.443 17.938 146.154 16.9573 147.681 15.4171C149.208 13.8774 150.6 11.7256 150.6 9H149.4ZM143 2.6C146.535 2.6 149.4 5.46538 149.4 9H150.6C150.6 4.80264 147.197 1.4 143 1.4V2.6ZM136.6 9C136.6 5.46538 139.465 2.6 143 2.6V1.4C138.803 1.4 135.4 4.80264 135.4 9H136.6ZM142.878 17.2713C142.164 16.9007 140.574 15.9876 139.171 14.5722C137.767 13.1563 136.6 11.2907 136.6 9H135.4C135.4 11.7256 136.792 13.8774 138.319 15.4171C139.846 16.9573 141.557 17.938 142.326 18.3366L142.878 17.2713ZM143.122 17.2714C143.042 17.3127 142.958 17.3127 142.878 17.2714L142.326 18.3366C142.752 18.5576 143.248 18.5576 143.674 18.3366L143.122 17.2714ZM145.4 9C145.4 10.3255 144.325 11.4 143 11.4V12.6C144.988 12.6 146.6 10.9882 146.6 9H145.4ZM143 6.6C144.325 6.6 145.4 7.67452 145.4 9H146.6C146.6 7.01178 144.988 5.4 143 5.4V6.6ZM140.6 9C140.6 7.67452 141.675 6.6 143 6.6V5.4C141.012 5.4 139.4 7.01178 139.4 9H140.6ZM143 11.4C141.675 11.4 140.6 10.3255 140.6 9H139.4C139.4 10.9882 141.012 12.6 143 12.6V11.4Z" fill="#5984D6"/>
<path d="M150.794 17.5C151.584 17.9561 152 18.4734 152 19C152 19.5266 151.584 20.0439 150.794 20.5C150.004 20.9561 148.868 21.3348 147.5 21.5981C146.132 21.8614 144.58 22 143 22C141.42 22 139.868 21.8614 138.5 21.5981C137.132 21.3348 135.996 20.9561 135.206 20.5C134.416 20.0439 134 19.5266 134 19C134 18.4734 134.416 17.9561 135.206 17.5" stroke="#5984D6" stroke-width="1.2" stroke-linecap="round"/>
<path d="M1.98153 45V18.8182H12.8991C14.8594 18.8182 16.5 19.0952 17.821 19.6491C19.1506 20.2031 20.1477 20.9787 20.8125 21.9759C21.4858 22.973 21.8224 24.1278 21.8224 25.4403C21.8224 26.4375 21.6136 27.3281 21.196 28.1122C20.7784 28.8878 20.2031 29.5312 19.4702 30.0426C18.7372 30.554 17.8892 30.9119 16.9261 31.1165V31.3722C17.983 31.4233 18.9588 31.7088 19.8537 32.2287C20.7571 32.7486 21.4815 33.473 22.027 34.402C22.5724 35.3224 22.8452 36.4134 22.8452 37.6747C22.8452 39.081 22.4872 40.3381 21.7713 41.446C21.0554 42.5455 20.0199 43.4148 18.6648 44.054C17.3097 44.6847 15.6648 45 13.7301 45H1.98153ZM8.30966 39.8991H12.2216C13.5938 39.8991 14.6037 39.6392 15.2514 39.1193C15.9077 38.5994 16.2358 37.875 16.2358 36.946C16.2358 36.2727 16.0781 35.6932 15.7628 35.2074C15.4474 34.7131 15 34.3338 14.4205 34.0696C13.8409 33.7969 13.1463 33.6605 12.3366 33.6605H8.30966V39.8991ZM8.30966 29.5824H11.8125C12.5028 29.5824 13.1165 29.4673 13.6534 29.2372C14.1903 29.0071 14.608 28.6747 14.9062 28.2401C15.2131 27.8054 15.3665 27.2812 15.3665 26.6676C15.3665 25.7898 15.0554 25.0994 14.4332 24.5966C13.8111 24.0938 12.9716 23.8423 11.9148 23.8423H8.30966V29.5824ZM50.5994 31.9091C50.5994 34.7898 50.0455 37.2315 48.9375 39.2344C47.8295 41.2372 46.3295 42.7585 44.4375 43.7983C42.554 44.8381 40.4403 45.358 38.0966 45.358C35.7443 45.358 33.6264 44.8338 31.7429 43.7855C29.8594 42.7372 28.3636 41.2159 27.2557 39.2216C26.1562 37.2187 25.6065 34.7812 25.6065 31.9091C25.6065 29.0284 26.1562 26.5866 27.2557 24.5838C28.3636 22.581 29.8594 21.0597 31.7429 20.0199C33.6264 18.9801 35.7443 18.4602 38.0966 18.4602C40.4403 18.4602 42.554 18.9801 44.4375 20.0199C46.3295 21.0597 47.8295 22.581 48.9375 24.5838C50.0455 26.5866 50.5994 29.0284 50.5994 31.9091ZM44.1307 31.9091C44.1307 30.2045 43.8878 28.7642 43.402 27.5881C42.9247 26.4119 42.2344 25.5213 41.331 24.9162C40.4361 24.3111 39.358 24.0085 38.0966 24.0085C36.8438 24.0085 35.7656 24.3111 34.8622 24.9162C33.9588 25.5213 33.2642 26.4119 32.7784 27.5881C32.3011 28.7642 32.0625 30.2045 32.0625 31.9091C32.0625 33.6136 32.3011 35.054 32.7784 36.2301C33.2642 37.4062 33.9588 38.2969 34.8622 38.902C35.7656 39.5071 36.8438 39.8097 38.0966 39.8097C39.358 39.8097 40.4361 39.5071 41.331 38.902C42.2344 38.2969 42.9247 37.4062 43.402 36.2301C43.8878 35.054 44.1307 33.6136 44.1307 31.9091ZM79.0057 31.9091C79.0057 34.7898 78.4517 37.2315 77.3438 39.2344C76.2358 41.2372 74.7358 42.7585 72.8438 43.7983C70.9602 44.8381 68.8466 45.358 66.5028 45.358C64.1506 45.358 62.0327 44.8338 60.1491 43.7855C58.2656 42.7372 56.7699 41.2159 55.6619 39.2216C54.5625 37.2187 54.0128 34.7812 54.0128 31.9091C54.0128 29.0284 54.5625 26.5866 55.6619 24.5838C56.7699 22.581 58.2656 21.0597 60.1491 20.0199C62.0327 18.9801 64.1506 18.4602 66.5028 18.4602C68.8466 18.4602 70.9602 18.9801 72.8438 20.0199C74.7358 21.0597 76.2358 22.581 77.3438 24.5838C78.4517 26.5866 79.0057 29.0284 79.0057 31.9091ZM72.5369 31.9091C72.5369 30.2045 72.294 28.7642 71.8082 27.5881C71.331 26.4119 70.6406 25.5213 69.7372 24.9162C68.8423 24.3111 67.7642 24.0085 66.5028 24.0085C65.25 24.0085 64.1719 24.3111 63.2685 24.9162C62.3651 25.5213 61.6705 26.4119 61.1847 27.5881C60.7074 28.7642 60.4688 30.2045 60.4688 31.9091C60.4688 33.6136 60.7074 35.054 61.1847 36.2301C61.6705 37.4062 62.3651 38.2969 63.2685 38.902C64.1719 39.5071 65.25 39.8097 66.5028 39.8097C67.7642 39.8097 68.8423 39.5071 69.7372 38.902C70.6406 38.2969 71.331 37.4062 71.8082 36.2301C72.294 35.054 72.5369 33.6136 72.5369 31.9091ZM82.7003 45V18.8182H89.0284V29.3267H99.3452V18.8182H105.661V45H99.3452V34.4787H89.0284V45H82.7003ZM134.342 31.9091C134.342 34.7898 133.788 37.2315 132.68 39.2344C131.572 41.2372 130.072 42.7585 128.18 43.7983C126.296 44.8381 124.183 45.358 121.839 45.358C119.487 45.358 117.369 44.8338 115.485 43.7855C113.602 42.7372 112.106 41.2159 110.998 39.2216C109.898 37.2187 109.349 34.7812 109.349 31.9091C109.349 29.0284 109.898 26.5866 110.998 24.5838C112.106 22.581 113.602 21.0597 115.485 20.0199C117.369 18.9801 119.487 18.4602 121.839 18.4602C124.183 18.4602 126.296 18.9801 128.18 20.0199C130.072 21.0597 131.572 22.581 132.68 24.5838C133.788 26.5866 134.342 29.0284 134.342 31.9091ZM127.873 31.9091C127.873 30.2045 127.63 28.7642 127.144 27.5881C126.667 26.4119 125.977 25.5213 125.073 24.9162C124.178 24.3111 123.1 24.0085 121.839 24.0085C120.586 24.0085 119.508 24.3111 118.604 24.9162C117.701 25.5213 117.006 26.4119 116.521 27.5881C116.043 28.7642 115.805 30.2045 115.805 31.9091C115.805 33.6136 116.043 35.054 116.521 36.2301C117.006 37.4062 117.701 38.2969 118.604 38.902C119.508 39.5071 120.586 39.8097 121.839 39.8097C123.1 39.8097 124.178 39.5071 125.073 38.902C125.977 38.2969 126.667 37.4062 127.144 36.2301C127.63 35.054 127.873 33.6136 127.873 31.9091Z" fill="black"/>
</svg>
