<svg width="18" height="18" viewBox="0 0 18 18" fill="none" xmlns="http://www.w3.org/2000/svg">
<path d="M6.94519 4.21986C7.58726 2.61918 7.9083 1.81883 8.42987 1.70791C8.56702 1.67874 8.70876 1.67874 8.84591 1.70791C9.36749 1.81883 9.68853 2.61918 10.3306 4.21986C10.6957 5.13014 10.8783 5.58528 11.2199 5.89485C11.3157 5.98168 11.4197 6.05901 11.5305 6.12576C11.9253 6.36374 12.4182 6.40788 13.404 6.49617C15.0728 6.64562 15.9072 6.72034 16.162 7.19609C16.2147 7.29462 16.2506 7.4013 16.2681 7.51169C16.3526 8.04472 15.7392 8.60278 14.5124 9.7189L14.1717 10.0288C13.5982 10.5506 13.3114 10.8115 13.1455 11.1372C13.046 11.3325 12.9793 11.5428 12.948 11.7598C12.8959 12.1215 12.9799 12.5 13.1479 13.2569L13.2079 13.5274C13.5091 14.8849 13.6597 15.5637 13.4717 15.8973C13.3028 16.197 12.9918 16.3889 12.6482 16.4053C12.2656 16.4236 11.7267 15.9844 10.6487 15.106C9.93847 14.5273 9.58336 14.2379 9.18915 14.1249C8.8289 14.0216 8.44688 14.0216 8.08663 14.1249C7.69242 14.2379 7.33732 14.5273 6.62711 15.106C5.54913 15.9844 5.01015 16.4236 4.62762 16.4053C4.28402 16.3889 3.97298 16.197 3.80411 15.8973C3.61612 15.5637 3.76672 14.8849 4.06791 13.5274L4.12792 13.2569C4.29587 12.5 4.37985 12.1215 4.32774 11.7598C4.29648 11.5428 4.22976 11.3325 4.13026 11.1372C3.96439 10.8115 3.67762 10.5506 3.10407 10.0288L2.7634 9.7189C1.53661 8.60278 0.923214 8.04472 1.00769 7.51169C1.02518 7.4013 1.06106 7.29462 1.11383 7.19608C1.36863 6.72034 2.20301 6.64562 3.87177 6.49617C4.85756 6.40788 5.35045 6.36374 5.74529 6.12576C5.85604 6.05901 5.96005 5.98168 6.05587 5.89485C6.39748 5.58528 6.58005 5.13014 6.94519 4.21986Z" fill="#222222" stroke="#222222" stroke-width="2"/>
</svg>
